<svg xmlns="http://www.w3.org/2000/svg" viewBox="0 0 48 48"><path d="M15 20a6 6 0 0 1 4-9 7 7 0 0 1 11-2 6 6 0 0 1 3 11z" fill="#6FC5A0" stroke="#4A9E7C" stroke-width="1.6"/><path d="M14 19h20a3 3 0 0 1 3 3c0 6-5 9-13 9s-13-3-13-9a3 3 0 0 1 3-3z" fill="#8ED8B6" stroke="#4A9E7C" stroke-width="1.6"/><circle cx="20.5" cy="24" r="1.3" fill="#26483A"/><circle cx="27.5" cy="24" r="1.3" fill="#26483A"/><path d="M22.3 27.4q1.7 1.5 3.4 0" stroke="#26483A" stroke-width="1.3" fill="none" stroke-linecap="round"/><ellipse cx="17" cy="26.4" rx="2.2" ry="1.5" fill="#FF9E8A" opacity=".45"/><ellipse cx="31" cy="26.4" rx="2.2" ry="1.5" fill="#FF9E8A" opacity=".45"/></svg>